# Blender v2.79 (sub 0) OBJ File: ''
# www.blender.org
mtllib Ball.mtl
o Sphere
v 0.000000 15.216905 -4.944272
v 0.000000 12.944272 -9.404564
v 0.000000 9.404564 -12.944272
v 0.000000 -4.944273 -15.216904
v 0.000000 -9.404563 -12.944272
v 0.000000 -15.216906 -4.944269
v 0.000000 -16.000000 0.000005
v 2.906173 15.216905 -3.999999
v 5.527867 12.944272 -7.608451
v 7.608455 9.404564 -10.472136
v 8.944275 4.944272 -12.310734
v 9.404567 -0.000001 -12.944271
v 8.944274 -4.944273 -12.310733
v 7.608455 -9.404563 -10.472136
v 5.527866 -12.944273 -7.608450
v 2.906171 -15.216906 -3.999996
v 4.702287 15.216905 -1.527861
v 8.944277 12.944272 -2.906167
v 12.310740 9.404564 -3.999997
v 14.472141 4.944272 -4.702279
v 15.216908 -0.000001 -4.944269
v 14.472140 -4.944273 -4.702279
v 12.310740 -9.404563 -3.999997
v 8.944276 -12.944273 -2.906167
v 4.702284 -15.216906 -1.527860
v 4.702287 15.216905 1.527871
v 8.944277 12.944272 2.906176
v 12.310740 9.404564 4.000007
v 14.472141 4.944272 4.702288
v 15.216908 -0.000001 4.944277
v 14.472140 -4.944273 4.702289
v 12.310740 -9.404563 4.000007
v 8.944276 -12.944273 2.906176
v 4.702284 -15.216906 1.527870
v 2.906173 15.216905 4.000009
v 5.527867 12.944272 7.608460
v 7.608456 9.404564 10.472146
v 8.944276 4.944272 12.310742
v 9.404568 -0.000001 12.944279
v 8.944274 -4.944273 12.310743
v 7.608456 -9.404563 10.472146
v 5.527867 -12.944273 7.608460
v 2.906171 -15.216906 4.000007
v 0.000000 15.216905 4.944282
v 0.000001 12.944272 9.404574
v -0.000000 9.404564 12.944283
v 0.000002 4.944272 15.216914
v 0.000002 -0.000001 16.000010
v -0.000001 -4.944273 15.216914
v -0.000000 -9.404563 12.944283
v 0.000001 -12.944273 9.404573
v 0.000000 -15.216906 4.944279
v -0.000003 16.000000 0.000009
v -2.906173 15.216905 4.000010
v -5.527866 12.944272 7.608462
v -7.608456 9.404564 10.472146
v -8.944274 4.944272 12.310744
v -9.404565 -0.000001 12.944282
v -8.944276 -4.944273 12.310743
v -7.608456 -9.404563 10.472146
v -5.527866 -12.944273 7.608461
v -2.906171 -15.216906 4.000007
v -4.702287 15.216905 1.527871
v -8.944277 12.944272 2.906178
v -12.310740 9.404564 4.000007
v -14.472140 4.944272 4.702290
v -15.216908 -0.000001 4.944281
v -14.472142 -4.944273 4.702288
v -12.310740 -9.404563 4.000007
v -8.944276 -12.944273 2.906178
v -4.702284 -15.216906 1.527870
v -4.702287 15.216905 -1.527860
v -8.944278 12.944272 -2.906166
v -12.310740 9.404564 -3.999997
v -14.472141 4.944272 -4.702277
v -15.216908 -0.000001 -4.944266
v -14.472142 -4.944273 -4.702280
v -12.310740 -9.404563 -3.999997
v -8.944277 -12.944273 -2.906165
v -4.702284 -15.216906 -1.527859
v -2.906173 15.216905 -3.999999
v -5.527869 12.944272 -7.608451
v -7.608457 9.404564 -10.472136
v -8.944276 4.944272 -12.310732
v -9.404569 -0.000001 -12.944268
v -8.944276 -4.944273 -12.310735
v -7.608457 -9.404563 -10.472136
v -5.527868 -12.944273 -7.608450
v -2.906172 -15.216906 -3.999997
v -0.000002 4.944272 -15.216905
v -0.000003 -0.000001 -15.999999
v -0.000002 -12.944273 -9.404564
vn 0.3056 -0.1490 -0.9404
vn 0.2239 0.6892 -0.6892
vn 0.0508 -0.9864 -0.1562
vn 0.2781 -0.4361 -0.8559
vn 0.2781 0.4361 -0.8559
vn 0.0508 0.9864 -0.1562
vn 0.2239 -0.6892 -0.6892
vn 0.3056 0.1490 -0.9404
vn 0.1459 0.8815 -0.4491
vn 0.1459 -0.8815 -0.4491
vn 0.5862 0.6892 -0.4259
vn 0.1329 -0.9864 -0.0966
vn 0.7280 -0.4361 -0.5290
vn 0.7280 0.4361 -0.5290
vn 0.1329 0.9864 -0.0966
vn 0.5862 -0.6892 -0.4259
vn 0.8000 0.1490 -0.5812
vn 0.3821 0.8815 -0.2776
vn 0.3821 -0.8815 -0.2776
vn 0.8000 -0.1490 -0.5812
vn 0.4722 -0.8815 0.0000
vn 0.9888 -0.1490 0.0000
vn 0.7246 0.6892 0.0000
vn 0.1643 -0.9864 0.0000
vn 0.8999 -0.4361 0.0000
vn 0.8999 0.4361 0.0000
vn 0.1643 0.9864 0.0000
vn 0.7246 -0.6892 0.0000
vn 0.9888 0.1490 0.0000
vn 0.4722 0.8815 0.0000
vn 0.8000 0.1490 0.5812
vn 0.3821 0.8815 0.2776
vn 0.3821 -0.8815 0.2776
vn 0.8000 -0.1490 0.5812
vn 0.5862 0.6892 0.4259
vn 0.1329 -0.9864 0.0966
vn 0.7280 -0.4361 0.5290
vn 0.7280 0.4361 0.5290
vn 0.1329 0.9864 0.0966
vn 0.5862 -0.6892 0.4259
vn 0.0508 0.9864 0.1562
vn 0.2239 -0.6892 0.6892
vn 0.3056 0.1490 0.9404
vn 0.1459 0.8815 0.4491
vn 0.1459 -0.8815 0.4491
vn 0.3056 -0.1490 0.9404
vn 0.2239 0.6892 0.6892
vn 0.0508 -0.9864 0.1562
vn 0.2781 -0.4361 0.8559
vn 0.2781 0.4361 0.8559
vn -0.2781 0.4361 0.8559
vn -0.0508 0.9864 0.1562
vn -0.2239 -0.6892 0.6892
vn -0.3056 0.1490 0.9404
vn -0.1459 0.8815 0.4491
vn -0.1459 -0.8815 0.4491
vn -0.3056 -0.1490 0.9404
vn -0.2239 0.6892 0.6892
vn -0.0508 -0.9864 0.1562
vn -0.2781 -0.4361 0.8559
vn -0.1329 -0.9864 0.0966
vn -0.7280 -0.4361 0.5290
vn -0.7280 0.4361 0.5290
vn -0.1329 0.9864 0.0966
vn -0.5862 -0.6892 0.4259
vn -0.8000 0.1490 0.5812
vn -0.3821 0.8815 0.2776
vn -0.3821 -0.8815 0.2776
vn -0.8000 -0.1490 0.5812
vn -0.5862 0.6892 0.4259
vn -0.9888 -0.1490 0.0000
vn -0.7246 0.6892 0.0000
vn -0.1643 -0.9864 0.0000
vn -0.8999 -0.4361 0.0000
vn -0.8999 0.4361 0.0000
vn -0.1643 0.9864 0.0000
vn -0.7246 -0.6892 0.0000
vn -0.9888 0.1490 0.0000
vn -0.4722 0.8815 0.0000
vn -0.4722 -0.8815 0.0000
vn -0.3821 0.8815 -0.2776
vn -0.3821 -0.8815 -0.2776
vn -0.8000 -0.1490 -0.5812
vn -0.5862 0.6892 -0.4259
vn -0.1329 -0.9864 -0.0966
vn -0.7280 -0.4361 -0.5290
vn -0.7280 0.4361 -0.5290
vn -0.1329 0.9864 -0.0966
vn -0.5862 -0.6892 -0.4259
vn -0.8000 0.1490 -0.5812
vn -0.3056 0.1490 -0.9404
vn -0.1459 0.8815 -0.4491
vn -0.1459 -0.8815 -0.4491
vn -0.3056 -0.1490 -0.9404
vn -0.2239 0.6892 -0.6892
vn -0.0508 -0.9864 -0.1562
vn -0.2781 -0.4361 -0.8559
vn -0.2781 0.4361 -0.8559
vn -0.0508 0.9864 -0.1562
vn -0.2239 -0.6892 -0.6892
usemtl None
s off
f 4//1 91//1 12//1 13//1
f 3//2 2//2 9//2 10//2
f 7//3 6//3 16//3
f 5//4 4//4 13//4 14//4
f 90//5 3//5 10//5 11//5
f 1//6 53//6 8//6
f 92//7 5//7 14//7 15//7
f 91//8 90//8 11//8 12//8
f 2//9 1//9 8//9 9//9
f 6//10 92//10 15//10 16//10
f 10//11 9//11 18//11 19//11
f 7//12 16//12 25//12
f 14//13 13//13 22//13 23//13
f 11//14 10//14 19//14 20//14
f 8//15 53//15 17//15
f 15//16 14//16 23//16 24//16
f 12//17 11//17 20//17 21//17
f 9//18 8//18 17//18 18//18
f 16//19 15//19 24//19 25//19
f 13//20 12//20 21//20 22//20
f 25//21 24//21 33//21 34//21
f 22//22 21//22 30//22 31//22
f 19//23 18//23 27//23 28//23
f 7//24 25//24 34//24
f 23//25 22//25 31//25 32//25
f 20//26 19//26 28//26 29//26
f 17//27 53//27 26//27
f 24//28 23//28 32//28 33//28
f 21//29 20//29 29//29 30//29
f 18//30 17//30 26//30 27//30
f 30//31 29//31 38//31 39//31
f 27//32 26//32 35//32 36//32
f 34//33 33//33 42//33 43//33
f 31//34 30//34 39//34 40//34
f 28//35 27//35 36//35 37//35
f 7//36 34//36 43//36
f 32//37 31//37 40//37 41//37
f 29//38 28//38 37//38 38//38
f 26//39 53//39 35//39
f 33//40 32//40 41//40 42//40
f 35//41 53//41 44//41
f 42//42 41//42 50//42 51//42
f 39//43 38//43 47//43 48//43
f 36//44 35//44 44//44 45//44
f 43//45 42//45 51//45 52//45
f 40//46 39//46 48//46 49//46
f 37//47 36//47 45//47 46//47
f 7//48 43//48 52//48
f 41//49 40//49 49//49 50//49
f 38//50 37//50 46//50 47//50
f 47//51 46//51 56//51 57//51
f 44//52 53//52 54//52
f 51//53 50//53 60//53 61//53
f 48//54 47//54 57//54 58//54
f 45//55 44//55 54//55 55//55
f 52//56 51//56 61//56 62//56
f 49//57 48//57 58//57 59//57
f 46//58 45//58 55//58 56//58
f 7//59 52//59 62//59
f 50//60 49//60 59//60 60//60
f 7//61 62//61 71//61
f 60//62 59//62 68//62 69//62
f 57//63 56//63 65//63 66//63
f 54//64 53//64 63//64
f 61//65 60//65 69//65 70//65
f 58//66 57//66 66//66 67//66
f 55//67 54//67 63//67 64//67
f 62//68 61//68 70//68 71//68
f 59//69 58//69 67//69 68//69
f 56//70 55//70 64//70 65//70
f 68//71 67//71 76//71 77//71
f 65//72 64//72 73//72 74//72
f 7//73 71//73 80//73
f 69//74 68//74 77//74 78//74
f 66//75 65//75 74//75 75//75
f 63//76 53//76 72//76
f 70//77 69//77 78//77 79//77
f 67//78 66//78 75//78 76//78
f 64//79 63//79 72//79 73//79
f 71//80 70//80 79//80 80//80
f 73//81 72//81 81//81 82//81
f 80//82 79//82 88//82 89//82
f 77//83 76//83 85//83 86//83
f 74//84 73//84 82//84 83//84
f 7//85 80//85 89//85
f 78//86 77//86 86//86 87//86
f 75//87 74//87 83//87 84//87
f 72//88 53//88 81//88
f 79//89 78//89 87//89 88//89
f 76//90 75//90 84//90 85//90
f 85//91 84//91 90//91 91//91
f 82//92 81//92 1//92 2//92
f 89//93 88//93 92//93 6//93
f 86//94 85//94 91//94 4//94
f 83//95 82//95 2//95 3//95
f 7//96 89//96 6//96
f 87//97 86//97 4//97 5//97
f 84//98 83//98 3//98 90//98
f 81//99 53//99 1//99
f 88//100 87//100 5//100 92//100
